<?xml version="1.0" standalone="no"?>
<!DOCTYPE svg PUBLIC "-//W3C//DTD SVG 20010904//EN"
 "http://www.w3.org/TR/2001/REC-SVG-20010904/DTD/svg10.dtd">
<svg version="1.0" xmlns="http://www.w3.org/2000/svg"
 width="1250.000000pt" height="1250.000000pt" viewBox="0 0 1250.000000 1250.000000"
 preserveAspectRatio="xMidYMid meet">
<metadata>
Created by potrace 1.14, written by Peter Selinger 2001-2017
</metadata>
<g transform="translate(0.000000,1250.000000) scale(0.100000,-0.100000)"
fill="#000000" stroke="none">
<path d="M0 6250 l0 -6250 6250 0 6250 0 0 6250 0 6250 -6250 0 -6250 0 0
-6250z m2740 2990 c371 -166 737 -329 813 -363 120 -53 138 -64 134 -82 -4
-17 -720 -1635 -733 -1657 -3 -4 33 -26 78 -49 172 -86 303 -181 456 -332 447
-437 638 -1071 511 -1692 -32 -152 -76 -274 -212 -580 -68 -154 -233 -526
-367 -827 -133 -302 -247 -548 -252 -548 -13 0 -54 18 -803 355 -352 158 -689
309 -749 336 -60 27 -111 50 -113 53 -2 2 56 140 130 307 112 254 656 1483
1181 2668 69 156 126 288 126 292 0 5 -37 27 -81 50 -312 156 -595 430 -768
744 -99 180 -177 408 -212 620 -21 122 -17 456 5 580 22 122 75 310 110 388
23 52 27 56 48 48 13 -5 327 -145 698 -311z m5279 40 c335 -21 637 -84 936
-197 978 -370 1705 -1195 1955 -2217 73 -300 96 -520 87 -840 -14 -494 -116
-904 -333 -1338 -327 -655 -866 -1173 -1531 -1473 -153 -69 -439 -165 -593
-199 -403 -88 -827 -99 -1224 -31 -984 169 -1826 791 -2280 1683 -327 644
-425 1381 -280 2092 177 860 713 1619 1466 2073 473 285 1005 438 1588 455 25
1 119 -3 209 -8z"/>
<path d="M7715 7690 c-262 -22 -519 -114 -755 -271 -127 -84 -325 -282 -409
-409 -326 -491 -369 -1080 -116 -1595 219 -447 610 -749 1108 -857 86 -18 134
-22 302 -22 220 0 317 14 500 75 277 93 544 280 729 511 332 414 432 979 265
1490 -173 530 -616 928 -1167 1048 -83 18 -296 42 -347 38 -11 0 -61 -4 -110
-8z"/>
</g>
</svg>
